<?xml version="1.0" encoding="utf-8"?>
<!-- Generator: Adobe Illustrator 19.0.0, SVG Export Plug-In . SVG Version: 6.00 Build 0)  -->
<svg version="1.1" xmlns="http://www.w3.org/2000/svg" xmlns:xlink="http://www.w3.org/1999/xlink" x="0px" y="0px"
	 viewBox="0 0 520 332" style="enable-background:new 0 0 520 332;" xml:space="preserve">
<style type="text/css">
	.st0{stroke:#F6F6F6;stroke-miterlimit:10;}
	.st1{font-family:'MyriadPro-Regular';}
	.st2{font-size:109.5734px;}
	.st3{stroke:#F6F6F6;stroke-width:4.2648;stroke-miterlimit:10;}
</style>
<g id="Calque_1">
	<g id="XMLID_417_">
		<g id="XMLID_412_">
			<circle id="XMLID_418_" class="st0" cx="212.1" cy="47.4" r="24.7"/>
			<path id="XMLID_415_" class="st0" d="M218.5,177.9h-12.9c-10,0-18.3-8.2-18.3-18.3V90.4c0-10,8.2-18.3,18.3-18.3h12.9
				c10,0,18.3,8.2,18.3,18.3v69.3C236.8,169.7,228.6,177.9,218.5,177.9z"/>
			<circle id="XMLID_414_" class="st0" cx="311" cy="47.4" r="24.7"/>
			<path id="XMLID_413_" class="st0" d="M317.5,177.9h-12.9c-10,0-18.3-8.2-18.3-18.3V90.4c0-10,8.2-18.3,18.3-18.3h12.9
				c10,0,18.3,8.2,18.3,18.3v69.3C335.7,169.7,327.5,177.9,317.5,177.9z"/>
		</g>
		<g id="XMLID_404_">
			<circle id="XMLID_408_" class="st0" cx="261.5" cy="51" r="28.4"/>
			<path id="XMLID_405_" class="st0" d="M268.9,200.6h-14.8c-11.5,0-20.9-9.4-20.9-20.9v-79.4c0-11.5,9.4-20.9,20.9-20.9h14.8
				c11.5,0,20.9,9.4,20.9,20.9v79.4C289.9,191.2,280.5,200.6,268.9,200.6z"/>
		</g>
	</g>
	<text id="XMLID_399_" transform="matrix(1 0 0 1 114.6794 289.7929)" class="st1 st2">ÉQIPO</text>
	<g id="XMLID_425_">
		<g id="XMLID_393_">
			<g id="XMLID_402_">
				<path id="XMLID_416_" class="st3" d="M262.8,87.9c-4.5,9.5-14.2,16-25.4,16c-15.5,0-28.1-12.6-28.1-28.1s12.6-28.1,28.1-28.1
					c11.2,0,20.8,6.5,25.4,16"/>
				<path id="XMLID_406_" class="st3" d="M307.5,98c-4.8,3.7-10.8,6-17.3,6c-15.5,0-28.1-12.6-28.1-28.1s12.6-28.1,28.1-28.1
					c6.5,0,12.5,2.2,17.3,6"/>
				<circle id="XMLID_409_" class="st3" cx="288.2" cy="132" r="28.1"/>
				<line id="XMLID_411_" class="st3" x1="318.9" y1="97" x2="318.9" y2="109.6"/>
				<path id="XMLID_403_" class="st3" d="M298.1,134.3"/>
				<line id="XMLID_407_" class="st3" x1="212.3" y1="63.2" x2="262.8" y2="63.8"/>
				<path id="XMLID_410_" class="st3" d="M308.1,110.9l-0.3-54.8l0-2.6c0.4,0.3-1.6-0.8-1.6-0.8"/>
				<path id="XMLID_473_" class="st3" d="M215,154.1c4.8,3.7,10.8,6,17.3,6c15.5,0,28.1-12.6,28.1-28.1s-12.6-28.1-28.1-28.1
					c-6.5,0-12.5,2.2-17.3,6"/>
				<line id="XMLID_471_" class="st3" x1="215" y1="109.1" x2="214.7" y2="166.7"/>
				<circle id="XMLID_501_" class="st3" cx="318.9" cy="91.9" r="2.6"/>
			</g>
			<line id="XMLID_419_" class="st3" x1="249.9" y1="45.5" x2="260.1" y2="40.8"/>
		</g>
		<polyline id="XMLID_424_" class="st3" points="218.5,107.5 215,109.9 214.8,116.2 		"/>
		<line id="XMLID_426_" class="st3" x1="261.5" y1="90.3" x2="263.8" y2="85.6"/>
	</g>
</g>
<g id="Calque_2">
	<g id="Calque_3">
	</g>
</g>
</svg>
